<svg xmlns="http://www.w3.org/2000/svg" width="400" height="400" viewBox="0 0 400 400" shape-rendering="crispEdges">
  <g fill="#fff">
    <g opacity=".08">
      <rect x="40" width="80" height="40" />
      <rect x="200" width="40" height="80" />
      <rect x="320" width="80" height="40" />
      <rect y="80" width="40" height="80" />
      <rect x="120" y="80" width="80" height="40" />
      <rect x="280" y="80" width="40" height="80" />
      <rect x="40" y="200" width="40" height="80" />
      <rect x="160" y="200" width="80" height="40" />
      <rect x="320" y="200" width="80" height="40" />
      <rect y="320" width="80" height="80" />
      <rect x="200" y="320" width="40" height="80" />
      <rect x="320" y="320" width="40" height="40" />
    </g>
    <g opacity=".14">
      <rect x="120" width="40" height="80" />
      <rect x="280" width="40" height="40" />
      <rect x="40" y="80" width="80" height="40" />
      <rect x="240" y="80" width="40" height="80" />
      <rect x="360" y="80" width="40" height="80" />
      <rect y="160" width="80" height="40" />
      <rect x="120" y="160" width="40" height="80" />
      <rect x="240" y="200" width="80" height="40" />
      <rect x="80" y="280" width="80" height="40" />
      <rect x="240" y="280" width="40" height="80" />
      <rect x="360" y="280" width="40" height="80" />
      <rect x="120" y="360" width="80" height="40" />
    </g>
    <g opacity=".2">
      <rect width="40" height="80" />
      <rect x="240" width="40" height="40" />
      <rect x="320" y="40" width="40" height="80" />
      <rect x="80" y="120" width="40" height="40" />
      <rect x="160" y="120" width="80" height="40" />
      <rect x="320" y="160" width="80" height="40" />
      <rect x="80" y="200" width="40" height="80" />
      <rect x="200" y="240" width="40" height="80" />
      <rect x="280" y="240" width="80" height="40" />
      <rect y="280" width="40" height="40" />
      <rect x="160" y="320" width="40" height="80" />
      <rect x="280" y="360" width="40" height="40" />
    </g>
    <g opacity=".28">
      <rect x="160" y="40" width="40" height="40" />
      <rect x="280" y="40" width="40" height="40" />
      <rect x="40" y="120" width="40" height="80" />
      <rect x="280" y="160" width="40" height="40" />
      <rect y="240" width="40" height="40" />
      <rect x="120" y="240" width="40" height="40" />
      <rect x="320" y="280" width="40" height="40" />
      <rect x="80" y="320" width="40" height="40" />
      <rect x="240" y="360" width="40" height="40" />
      <rect x="360" y="360" width="40" height="40" />
    </g>
  </g>
</svg>
